<svg xmlns="http://www.w3.org/2000/svg" width="800" height="200">
  <style>
    .bg { fill: #000; }
    .matrix-text {
      font-family: monospace;
      font-size: 20px;
      font-weight: bold;
    }
    .glow {
      filter: drop-shadow(0 0 5px #0F0);
    }
    @keyframes fall {
      0% { transform: translateY(-100%); opacity: 1; fill: #0F0; }
      50% { fill: #00FF00; }
      100% { transform: translateY(300px); opacity: 0; fill: #003300; }
    }
  </style>
  <rect width="100%" height="100%" class="bg" />

  <g style="animation: fall 7.37666372512491s linear 1.131060546923714s infinite;">
    <text class="matrix-text glow" x="0" y="0"><tspan x="0" dy="20">y</tspan><tspan x="0" dy="20">7</tspan><tspan x="0" dy="20">B</tspan><tspan x="0" dy="20">C</tspan><tspan x="0" dy="20">h</tspan><tspan x="0" dy="20">0</tspan><tspan x="0" dy="20">T</tspan><tspan x="0" dy="20">K</tspan><tspan x="0" dy="20">L</tspan><tspan x="0" dy="20">t</tspan><tspan x="0" dy="20">l</tspan><tspan x="0" dy="20">1</tspan><tspan x="0" dy="20">S</tspan><tspan x="0" dy="20">O</tspan><tspan x="0" dy="20">S</tspan><tspan x="0" dy="20">)</tspan><tspan x="0" dy="20">n</tspan><tspan x="0" dy="20">C</tspan><tspan x="0" dy="20">A</tspan><tspan x="0" dy="20">t</tspan><tspan x="0" dy="20">v</tspan><tspan x="0" dy="20">F</tspan><tspan x="0" dy="20">W</tspan><tspan x="0" dy="20">u</tspan></text>
  </g>
  <g style="animation: fall 5.0082249617494075s linear 4.094325364285708s infinite;">
    <text class="matrix-text glow" x="20" y="0"><tspan x="20" dy="20">X</tspan><tspan x="20" dy="20">b</tspan><tspan x="20" dy="20">Y</tspan><tspan x="20" dy="20">N</tspan><tspan x="20" dy="20">Q</tspan><tspan x="20" dy="20">s</tspan><tspan x="20" dy="20">D</tspan><tspan x="20" dy="20">Y</tspan><tspan x="20" dy="20">3</tspan><tspan x="20" dy="20">c</tspan><tspan x="20" dy="20">M</tspan><tspan x="20" dy="20">^</tspan><tspan x="20" dy="20">$</tspan><tspan x="20" dy="20">m</tspan><tspan x="20" dy="20">D</tspan><tspan x="20" dy="20">^</tspan><tspan x="20" dy="20">x</tspan><tspan x="20" dy="20">$</tspan></text>
  </g>
  <g style="animation: fall 4.225805832530425s linear 0.9110611691234549s infinite;">
    <text class="matrix-text glow" x="40" y="0"><tspan x="40" dy="20">1</tspan><tspan x="40" dy="20">5</tspan><tspan x="40" dy="20">C</tspan><tspan x="40" dy="20">U</tspan><tspan x="40" dy="20">@</tspan><tspan x="40" dy="20">U</tspan><tspan x="40" dy="20">G</tspan><tspan x="40" dy="20">*</tspan><tspan x="40" dy="20">7</tspan><tspan x="40" dy="20">z</tspan><tspan x="40" dy="20">X</tspan><tspan x="40" dy="20">!</tspan><tspan x="40" dy="20">g</tspan><tspan x="40" dy="20">S</tspan><tspan x="40" dy="20">r</tspan><tspan x="40" dy="20">u</tspan><tspan x="40" dy="20">T</tspan><tspan x="40" dy="20">7</tspan><tspan x="40" dy="20">t</tspan><tspan x="40" dy="20">k</tspan></text>
  </g>
  <g style="animation: fall 3.7854362249651867s linear 3.7540197804410753s infinite;">
    <text class="matrix-text glow" x="60" y="0"><tspan x="60" dy="20">r</tspan><tspan x="60" dy="20">t</tspan><tspan x="60" dy="20">L</tspan><tspan x="60" dy="20">d</tspan><tspan x="60" dy="20">o</tspan><tspan x="60" dy="20">b</tspan><tspan x="60" dy="20">)</tspan><tspan x="60" dy="20">Y</tspan><tspan x="60" dy="20">d</tspan><tspan x="60" dy="20">(</tspan><tspan x="60" dy="20">W</tspan><tspan x="60" dy="20">n</tspan></text>
  </g>
  <g style="animation: fall 5.557676239335255s linear 3.132875615697009s infinite;">
    <text class="matrix-text glow" x="80" y="0"><tspan x="80" dy="20">4</tspan><tspan x="80" dy="20">E</tspan><tspan x="80" dy="20">&</tspan><tspan x="80" dy="20">$</tspan><tspan x="80" dy="20">9</tspan><tspan x="80" dy="20">i</tspan><tspan x="80" dy="20">t</tspan><tspan x="80" dy="20">R</tspan><tspan x="80" dy="20">^</tspan><tspan x="80" dy="20">(</tspan><tspan x="80" dy="20">*</tspan><tspan x="80" dy="20">T</tspan><tspan x="80" dy="20">4</tspan><tspan x="80" dy="20">J</tspan><tspan x="80" dy="20">R</tspan><tspan x="80" dy="20">G</tspan><tspan x="80" dy="20">4</tspan><tspan x="80" dy="20">f</tspan></text>
  </g>
  <g style="animation: fall 7.592026141914676s linear 4.202515473770346s infinite;">
    <text class="matrix-text glow" x="100" y="0"><tspan x="100" dy="20">!</tspan><tspan x="100" dy="20">J</tspan><tspan x="100" dy="20">E</tspan><tspan x="100" dy="20">)</tspan><tspan x="100" dy="20">3</tspan><tspan x="100" dy="20">r</tspan><tspan x="100" dy="20">f</tspan><tspan x="100" dy="20">a</tspan><tspan x="100" dy="20">h</tspan><tspan x="100" dy="20">1</tspan><tspan x="100" dy="20">b</tspan><tspan x="100" dy="20">Z</tspan><tspan x="100" dy="20">M</tspan><tspan x="100" dy="20">e</tspan></text>
  </g>
  <g style="animation: fall 3.5780767513207437s linear 3.723141906671979s infinite;">
    <text class="matrix-text glow" x="120" y="0"><tspan x="120" dy="20">^</tspan><tspan x="120" dy="20">M</tspan><tspan x="120" dy="20">s</tspan><tspan x="120" dy="20">7</tspan><tspan x="120" dy="20">_</tspan><tspan x="120" dy="20">N</tspan><tspan x="120" dy="20">w</tspan><tspan x="120" dy="20">w</tspan><tspan x="120" dy="20">v</tspan><tspan x="120" dy="20">7</tspan><tspan x="120" dy="20">$</tspan></text>
  </g>
  <g style="animation: fall 5.782673266061861s linear 2.4734102146116554s infinite;">
    <text class="matrix-text glow" x="140" y="0"><tspan x="140" dy="20">X</tspan><tspan x="140" dy="20">m</tspan><tspan x="140" dy="20">@</tspan><tspan x="140" dy="20">M</tspan><tspan x="140" dy="20">d</tspan><tspan x="140" dy="20">E</tspan><tspan x="140" dy="20">S</tspan><tspan x="140" dy="20">1</tspan><tspan x="140" dy="20">d</tspan><tspan x="140" dy="20">H</tspan><tspan x="140" dy="20">0</tspan><tspan x="140" dy="20">M</tspan><tspan x="140" dy="20">#</tspan><tspan x="140" dy="20">r</tspan><tspan x="140" dy="20">Q</tspan><tspan x="140" dy="20">+</tspan><tspan x="140" dy="20">Q</tspan><tspan x="140" dy="20">y</tspan><tspan x="140" dy="20">w</tspan><tspan x="140" dy="20">T</tspan></text>
  </g>
  <g style="animation: fall 4.762146039857529s linear 0.7331382337331582s infinite;">
    <text class="matrix-text glow" x="160" y="0"><tspan x="160" dy="20">f</tspan><tspan x="160" dy="20">f</tspan><tspan x="160" dy="20">t</tspan><tspan x="160" dy="20">d</tspan><tspan x="160" dy="20">^</tspan><tspan x="160" dy="20">A</tspan><tspan x="160" dy="20">X</tspan><tspan x="160" dy="20">V</tspan><tspan x="160" dy="20">s</tspan><tspan x="160" dy="20">@</tspan><tspan x="160" dy="20">&</tspan><tspan x="160" dy="20">S</tspan><tspan x="160" dy="20">^</tspan><tspan x="160" dy="20">b</tspan><tspan x="160" dy="20">u</tspan><tspan x="160" dy="20">G</tspan><tspan x="160" dy="20">v</tspan><tspan x="160" dy="20">+</tspan><tspan x="160" dy="20">6</tspan><tspan x="160" dy="20">l</tspan></text>
  </g>
  <g style="animation: fall 4.439000585012735s linear 2.7632972826452185s infinite;">
    <text class="matrix-text glow" x="180" y="0"><tspan x="180" dy="20">c</tspan><tspan x="180" dy="20">Z</tspan><tspan x="180" dy="20">H</tspan><tspan x="180" dy="20">y</tspan><tspan x="180" dy="20">(</tspan><tspan x="180" dy="20">l</tspan><tspan x="180" dy="20">H</tspan><tspan x="180" dy="20">X</tspan><tspan x="180" dy="20">n</tspan><tspan x="180" dy="20">J</tspan><tspan x="180" dy="20">6</tspan><tspan x="180" dy="20">2</tspan><tspan x="180" dy="20">F</tspan><tspan x="180" dy="20">H</tspan><tspan x="180" dy="20">M</tspan><tspan x="180" dy="20">3</tspan><tspan x="180" dy="20">c</tspan><tspan x="180" dy="20">c</tspan><tspan x="180" dy="20">Z</tspan><tspan x="180" dy="20">L</tspan></text>
  </g>
  <g style="animation: fall 6.924810705982691s linear 0.4522677185268298s infinite;">
    <text class="matrix-text glow" x="200" y="0"><tspan x="200" dy="20">X</tspan><tspan x="200" dy="20">r</tspan><tspan x="200" dy="20">m</tspan><tspan x="200" dy="20">x</tspan><tspan x="200" dy="20">j</tspan><tspan x="200" dy="20">_</tspan><tspan x="200" dy="20">7</tspan><tspan x="200" dy="20">m</tspan><tspan x="200" dy="20">W</tspan><tspan x="200" dy="20">l</tspan><tspan x="200" dy="20">I</tspan><tspan x="200" dy="20">6</tspan></text>
  </g>
  <g style="animation: fall 7.324174691442148s linear 4.4548103830436s infinite;">
    <text class="matrix-text glow" x="220" y="0"><tspan x="220" dy="20">B</tspan><tspan x="220" dy="20">+</tspan><tspan x="220" dy="20">v</tspan><tspan x="220" dy="20">B</tspan><tspan x="220" dy="20">H</tspan><tspan x="220" dy="20">b</tspan><tspan x="220" dy="20">P</tspan><tspan x="220" dy="20">$</tspan><tspan x="220" dy="20">u</tspan><tspan x="220" dy="20">$</tspan><tspan x="220" dy="20">w</tspan><tspan x="220" dy="20">w</tspan><tspan x="220" dy="20">+</tspan><tspan x="220" dy="20">%</tspan><tspan x="220" dy="20">)</tspan><tspan x="220" dy="20">r</tspan><tspan x="220" dy="20">Q</tspan><tspan x="220" dy="20">y</tspan><tspan x="220" dy="20">2</tspan><tspan x="220" dy="20">u</tspan><tspan x="220" dy="20">R</tspan><tspan x="220" dy="20">A</tspan><tspan x="220" dy="20">R</tspan><tspan x="220" dy="20">b</tspan><tspan x="220" dy="20">0</tspan></text>
  </g>
  <g style="animation: fall 5.992929951432849s linear 0.9252957013302288s infinite;">
    <text class="matrix-text glow" x="240" y="0"><tspan x="240" dy="20">K</tspan><tspan x="240" dy="20">R</tspan><tspan x="240" dy="20">u</tspan><tspan x="240" dy="20">e</tspan><tspan x="240" dy="20">f</tspan><tspan x="240" dy="20">(</tspan><tspan x="240" dy="20">+</tspan><tspan x="240" dy="20">M</tspan><tspan x="240" dy="20">n</tspan><tspan x="240" dy="20">O</tspan><tspan x="240" dy="20">6</tspan><tspan x="240" dy="20">e</tspan><tspan x="240" dy="20">W</tspan><tspan x="240" dy="20">0</tspan><tspan x="240" dy="20">n</tspan><tspan x="240" dy="20">U</tspan><tspan x="240" dy="20">2</tspan><tspan x="240" dy="20">p</tspan><tspan x="240" dy="20">*</tspan><tspan x="240" dy="20">g</tspan><tspan x="240" dy="20">_</tspan><tspan x="240" dy="20">3</tspan><tspan x="240" dy="20">u</tspan></text>
  </g>
  <g style="animation: fall 7.587392079928392s linear 1.9838189424343393s infinite;">
    <text class="matrix-text glow" x="260" y="0"><tspan x="260" dy="20">6</tspan><tspan x="260" dy="20">3</tspan><tspan x="260" dy="20">f</tspan><tspan x="260" dy="20">m</tspan><tspan x="260" dy="20">Q</tspan><tspan x="260" dy="20">5</tspan><tspan x="260" dy="20">4</tspan><tspan x="260" dy="20">%</tspan><tspan x="260" dy="20">l</tspan><tspan x="260" dy="20">F</tspan><tspan x="260" dy="20">0</tspan><tspan x="260" dy="20">t</tspan><tspan x="260" dy="20">l</tspan><tspan x="260" dy="20">T</tspan><tspan x="260" dy="20">n</tspan><tspan x="260" dy="20">&</tspan><tspan x="260" dy="20">l</tspan><tspan x="260" dy="20">_</tspan><tspan x="260" dy="20">C</tspan><tspan x="260" dy="20">I</tspan><tspan x="260" dy="20">(</tspan><tspan x="260" dy="20">B</tspan><tspan x="260" dy="20">h</tspan><tspan x="260" dy="20">h</tspan></text>
  </g>
  <g style="animation: fall 6.075676187651011s linear 3.0954251406600615s infinite;">
    <text class="matrix-text glow" x="280" y="0"><tspan x="280" dy="20">f</tspan><tspan x="280" dy="20">x</tspan><tspan x="280" dy="20">#</tspan><tspan x="280" dy="20">_</tspan><tspan x="280" dy="20">q</tspan><tspan x="280" dy="20">Q</tspan><tspan x="280" dy="20">s</tspan><tspan x="280" dy="20">8</tspan><tspan x="280" dy="20">j</tspan><tspan x="280" dy="20">x</tspan></text>
  </g>
  <g style="animation: fall 4.150256864749473s linear 1.8288560380830958s infinite;">
    <text class="matrix-text glow" x="300" y="0"><tspan x="300" dy="20">Z</tspan><tspan x="300" dy="20">8</tspan><tspan x="300" dy="20">0</tspan><tspan x="300" dy="20">#</tspan><tspan x="300" dy="20">j</tspan><tspan x="300" dy="20">!</tspan><tspan x="300" dy="20">@</tspan><tspan x="300" dy="20">n</tspan><tspan x="300" dy="20">7</tspan><tspan x="300" dy="20">K</tspan></text>
  </g>
  <g style="animation: fall 4.053242878010488s linear 3.9463285746360905s infinite;">
    <text class="matrix-text glow" x="320" y="0"><tspan x="320" dy="20">I</tspan><tspan x="320" dy="20">8</tspan><tspan x="320" dy="20">u</tspan><tspan x="320" dy="20">@</tspan><tspan x="320" dy="20">$</tspan><tspan x="320" dy="20">7</tspan><tspan x="320" dy="20">d</tspan><tspan x="320" dy="20">0</tspan><tspan x="320" dy="20">R</tspan><tspan x="320" dy="20">x</tspan><tspan x="320" dy="20">1</tspan><tspan x="320" dy="20">T</tspan><tspan x="320" dy="20">9</tspan><tspan x="320" dy="20">$</tspan><tspan x="320" dy="20">J</tspan></text>
  </g>
  <g style="animation: fall 6.766556339196196s linear 3.728101751847449s infinite;">
    <text class="matrix-text glow" x="340" y="0"><tspan x="340" dy="20">)</tspan><tspan x="340" dy="20">f</tspan><tspan x="340" dy="20">L</tspan><tspan x="340" dy="20">P</tspan><tspan x="340" dy="20">n</tspan><tspan x="340" dy="20">5</tspan><tspan x="340" dy="20">a</tspan><tspan x="340" dy="20">!</tspan><tspan x="340" dy="20">P</tspan><tspan x="340" dy="20">Z</tspan><tspan x="340" dy="20">i</tspan><tspan x="340" dy="20">8</tspan><tspan x="340" dy="20">K</tspan><tspan x="340" dy="20">3</tspan><tspan x="340" dy="20">7</tspan><tspan x="340" dy="20">z</tspan><tspan x="340" dy="20">+</tspan><tspan x="340" dy="20">c</tspan><tspan x="340" dy="20">S</tspan><tspan x="340" dy="20">d</tspan></text>
  </g>
  <g style="animation: fall 3.3698495254358383s linear 2.8680906436684683s infinite;">
    <text class="matrix-text glow" x="360" y="0"><tspan x="360" dy="20">a</tspan><tspan x="360" dy="20">G</tspan><tspan x="360" dy="20">g</tspan><tspan x="360" dy="20">A</tspan><tspan x="360" dy="20">K</tspan><tspan x="360" dy="20">0</tspan><tspan x="360" dy="20">w</tspan><tspan x="360" dy="20">V</tspan><tspan x="360" dy="20">H</tspan><tspan x="360" dy="20">^</tspan><tspan x="360" dy="20">q</tspan><tspan x="360" dy="20">3</tspan><tspan x="360" dy="20">4</tspan><tspan x="360" dy="20">M</tspan><tspan x="360" dy="20">n</tspan><tspan x="360" dy="20">2</tspan><tspan x="360" dy="20">z</tspan><tspan x="360" dy="20">z</tspan><tspan x="360" dy="20">u</tspan><tspan x="360" dy="20">o</tspan><tspan x="360" dy="20">T</tspan><tspan x="360" dy="20">a</tspan><tspan x="360" dy="20">A</tspan><tspan x="360" dy="20">j</tspan><tspan x="360" dy="20">+</tspan></text>
  </g>
  <g style="animation: fall 5.190851929246704s linear 1.0607053160517093s infinite;">
    <text class="matrix-text glow" x="380" y="0"><tspan x="380" dy="20">p</tspan><tspan x="380" dy="20">M</tspan><tspan x="380" dy="20">m</tspan><tspan x="380" dy="20">q</tspan><tspan x="380" dy="20">I</tspan><tspan x="380" dy="20">z</tspan><tspan x="380" dy="20">A</tspan><tspan x="380" dy="20">Z</tspan><tspan x="380" dy="20">5</tspan><tspan x="380" dy="20">P</tspan><tspan x="380" dy="20">u</tspan><tspan x="380" dy="20">a</tspan><tspan x="380" dy="20">d</tspan><tspan x="380" dy="20">X</tspan><tspan x="380" dy="20">a</tspan></text>
  </g>
  <g style="animation: fall 3.2906009405845844s linear 1.6974532945598604s infinite;">
    <text class="matrix-text glow" x="400" y="0"><tspan x="400" dy="20">R</tspan><tspan x="400" dy="20">I</tspan><tspan x="400" dy="20">C</tspan><tspan x="400" dy="20">%</tspan><tspan x="400" dy="20">B</tspan><tspan x="400" dy="20">2</tspan><tspan x="400" dy="20">t</tspan><tspan x="400" dy="20">r</tspan><tspan x="400" dy="20">g</tspan><tspan x="400" dy="20">W</tspan><tspan x="400" dy="20">j</tspan><tspan x="400" dy="20">p</tspan><tspan x="400" dy="20">b</tspan><tspan x="400" dy="20">i</tspan><tspan x="400" dy="20">Q</tspan><tspan x="400" dy="20">u</tspan><tspan x="400" dy="20">M</tspan><tspan x="400" dy="20">1</tspan><tspan x="400" dy="20">O</tspan><tspan x="400" dy="20">9</tspan><tspan x="400" dy="20">0</tspan><tspan x="400" dy="20">H</tspan><tspan x="400" dy="20">6</tspan></text>
  </g>
  <g style="animation: fall 4.985054311083448s linear 3.267452584436985s infinite;">
    <text class="matrix-text glow" x="420" y="0"><tspan x="420" dy="20">R</tspan><tspan x="420" dy="20">N</tspan><tspan x="420" dy="20">j</tspan><tspan x="420" dy="20">Z</tspan><tspan x="420" dy="20">k</tspan><tspan x="420" dy="20">S</tspan><tspan x="420" dy="20">#</tspan><tspan x="420" dy="20">P</tspan><tspan x="420" dy="20">K</tspan><tspan x="420" dy="20">Q</tspan><tspan x="420" dy="20">B</tspan><tspan x="420" dy="20">D</tspan><tspan x="420" dy="20">n</tspan><tspan x="420" dy="20">o</tspan><tspan x="420" dy="20">6</tspan><tspan x="420" dy="20">W</tspan><tspan x="420" dy="20">E</tspan><tspan x="420" dy="20">#</tspan><tspan x="420" dy="20">R</tspan><tspan x="420" dy="20">o</tspan><tspan x="420" dy="20">F</tspan><tspan x="420" dy="20">H</tspan></text>
  </g>
  <g style="animation: fall 3.453176047977832s linear 0.5787521081126218s infinite;">
    <text class="matrix-text glow" x="440" y="0"><tspan x="440" dy="20">U</tspan><tspan x="440" dy="20">W</tspan><tspan x="440" dy="20">e</tspan><tspan x="440" dy="20">q</tspan><tspan x="440" dy="20">B</tspan><tspan x="440" dy="20">M</tspan><tspan x="440" dy="20">s</tspan><tspan x="440" dy="20">8</tspan><tspan x="440" dy="20">V</tspan><tspan x="440" dy="20">G</tspan><tspan x="440" dy="20">x</tspan><tspan x="440" dy="20">2</tspan><tspan x="440" dy="20">v</tspan><tspan x="440" dy="20">5</tspan><tspan x="440" dy="20">h</tspan><tspan x="440" dy="20">!</tspan><tspan x="440" dy="20">o</tspan><tspan x="440" dy="20">g</tspan><tspan x="440" dy="20">F</tspan></text>
  </g>
  <g style="animation: fall 7.628018595125528s linear 1.7414373688785196s infinite;">
    <text class="matrix-text glow" x="460" y="0"><tspan x="460" dy="20">4</tspan><tspan x="460" dy="20">P</tspan><tspan x="460" dy="20">c</tspan><tspan x="460" dy="20">_</tspan><tspan x="460" dy="20">K</tspan><tspan x="460" dy="20">X</tspan><tspan x="460" dy="20">A</tspan><tspan x="460" dy="20">8</tspan><tspan x="460" dy="20">J</tspan><tspan x="460" dy="20">n</tspan><tspan x="460" dy="20">K</tspan><tspan x="460" dy="20">u</tspan><tspan x="460" dy="20">+</tspan><tspan x="460" dy="20">n</tspan><tspan x="460" dy="20">O</tspan><tspan x="460" dy="20">i</tspan><tspan x="460" dy="20">U</tspan><tspan x="460" dy="20">K</tspan><tspan x="460" dy="20">R</tspan><tspan x="460" dy="20">s</tspan><tspan x="460" dy="20">w</tspan><tspan x="460" dy="20">q</tspan><tspan x="460" dy="20">O</tspan><tspan x="460" dy="20">F</tspan></text>
  </g>
  <g style="animation: fall 4.230255880542854s linear 1.9690678091075775s infinite;">
    <text class="matrix-text glow" x="480" y="0"><tspan x="480" dy="20">s</tspan><tspan x="480" dy="20">h</tspan><tspan x="480" dy="20">a</tspan><tspan x="480" dy="20">9</tspan><tspan x="480" dy="20">Y</tspan><tspan x="480" dy="20">_</tspan><tspan x="480" dy="20">(</tspan><tspan x="480" dy="20">*</tspan><tspan x="480" dy="20">T</tspan><tspan x="480" dy="20">D</tspan><tspan x="480" dy="20">a</tspan></text>
  </g>
  <g style="animation: fall 5.390474212649433s linear 4.042944164538767s infinite;">
    <text class="matrix-text glow" x="500" y="0"><tspan x="500" dy="20">*</tspan><tspan x="500" dy="20">l</tspan><tspan x="500" dy="20">&</tspan><tspan x="500" dy="20">c</tspan><tspan x="500" dy="20">1</tspan><tspan x="500" dy="20">t</tspan><tspan x="500" dy="20">3</tspan><tspan x="500" dy="20">Q</tspan><tspan x="500" dy="20">H</tspan><tspan x="500" dy="20">O</tspan><tspan x="500" dy="20">z</tspan><tspan x="500" dy="20">Q</tspan><tspan x="500" dy="20">_</tspan><tspan x="500" dy="20">1</tspan><tspan x="500" dy="20">(</tspan><tspan x="500" dy="20">n</tspan><tspan x="500" dy="20">W</tspan><tspan x="500" dy="20">M</tspan><tspan x="500" dy="20">a</tspan><tspan x="500" dy="20">Z</tspan></text>
  </g>
  <g style="animation: fall 6.841185105473744s linear 3.4884802100120367s infinite;">
    <text class="matrix-text glow" x="520" y="0"><tspan x="520" dy="20">L</tspan><tspan x="520" dy="20">%</tspan><tspan x="520" dy="20">I</tspan><tspan x="520" dy="20">5</tspan><tspan x="520" dy="20">Y</tspan><tspan x="520" dy="20">p</tspan><tspan x="520" dy="20">C</tspan><tspan x="520" dy="20">o</tspan><tspan x="520" dy="20">O</tspan><tspan x="520" dy="20">i</tspan><tspan x="520" dy="20">O</tspan><tspan x="520" dy="20">u</tspan><tspan x="520" dy="20">L</tspan><tspan x="520" dy="20">(</tspan><tspan x="520" dy="20">H</tspan><tspan x="520" dy="20">$</tspan><tspan x="520" dy="20">W</tspan><tspan x="520" dy="20">F</tspan><tspan x="520" dy="20">+</tspan><tspan x="520" dy="20">R</tspan><tspan x="520" dy="20">@</tspan><tspan x="520" dy="20">a</tspan><tspan x="520" dy="20">%</tspan></text>
  </g>
  <g style="animation: fall 6.979443074473312s linear 2.665952142444084s infinite;">
    <text class="matrix-text glow" x="540" y="0"><tspan x="540" dy="20">V</tspan><tspan x="540" dy="20">O</tspan><tspan x="540" dy="20">3</tspan><tspan x="540" dy="20">5</tspan><tspan x="540" dy="20">+</tspan><tspan x="540" dy="20">*</tspan><tspan x="540" dy="20">K</tspan><tspan x="540" dy="20">d</tspan><tspan x="540" dy="20">f</tspan><tspan x="540" dy="20">x</tspan><tspan x="540" dy="20">I</tspan><tspan x="540" dy="20">k</tspan></text>
  </g>
  <g style="animation: fall 4.095718865309129s linear 4.7702199155983225s infinite;">
    <text class="matrix-text glow" x="560" y="0"><tspan x="560" dy="20">D</tspan><tspan x="560" dy="20">T</tspan><tspan x="560" dy="20">a</tspan><tspan x="560" dy="20">s</tspan><tspan x="560" dy="20">^</tspan><tspan x="560" dy="20">E</tspan><tspan x="560" dy="20">0</tspan><tspan x="560" dy="20">s</tspan><tspan x="560" dy="20">U</tspan><tspan x="560" dy="20">f</tspan><tspan x="560" dy="20">_</tspan><tspan x="560" dy="20">M</tspan><tspan x="560" dy="20">9</tspan></text>
  </g>
  <g style="animation: fall 5.191303107827093s linear 4.187108748024139s infinite;">
    <text class="matrix-text glow" x="580" y="0"><tspan x="580" dy="20">9</tspan><tspan x="580" dy="20">b</tspan><tspan x="580" dy="20">f</tspan><tspan x="580" dy="20">G</tspan><tspan x="580" dy="20">i</tspan><tspan x="580" dy="20">c</tspan><tspan x="580" dy="20">t</tspan><tspan x="580" dy="20">w</tspan><tspan x="580" dy="20">M</tspan><tspan x="580" dy="20">D</tspan><tspan x="580" dy="20">g</tspan><tspan x="580" dy="20">O</tspan><tspan x="580" dy="20">o</tspan><tspan x="580" dy="20">Q</tspan><tspan x="580" dy="20">R</tspan><tspan x="580" dy="20">w</tspan><tspan x="580" dy="20">^</tspan><tspan x="580" dy="20">J</tspan></text>
  </g>
  <g style="animation: fall 3.7836880528637984s linear 0.20112085069961705s infinite;">
    <text class="matrix-text glow" x="600" y="0"><tspan x="600" dy="20">W</tspan><tspan x="600" dy="20">^</tspan><tspan x="600" dy="20">e</tspan><tspan x="600" dy="20">3</tspan><tspan x="600" dy="20">k</tspan><tspan x="600" dy="20">j</tspan><tspan x="600" dy="20">A</tspan><tspan x="600" dy="20">T</tspan><tspan x="600" dy="20">N</tspan><tspan x="600" dy="20">c</tspan><tspan x="600" dy="20">Z</tspan><tspan x="600" dy="20">A</tspan><tspan x="600" dy="20">5</tspan><tspan x="600" dy="20">q</tspan><tspan x="600" dy="20">D</tspan><tspan x="600" dy="20">)</tspan><tspan x="600" dy="20">H</tspan><tspan x="600" dy="20">e</tspan><tspan x="600" dy="20">!</tspan><tspan x="600" dy="20">J</tspan><tspan x="600" dy="20">h</tspan><tspan x="600" dy="20">P</tspan></text>
  </g>
  <g style="animation: fall 3.6537341406557444s linear 1.6547884590905182s infinite;">
    <text class="matrix-text glow" x="620" y="0"><tspan x="620" dy="20">J</tspan><tspan x="620" dy="20">B</tspan><tspan x="620" dy="20">5</tspan><tspan x="620" dy="20">I</tspan><tspan x="620" dy="20">f</tspan><tspan x="620" dy="20">n</tspan><tspan x="620" dy="20">x</tspan><tspan x="620" dy="20">b</tspan><tspan x="620" dy="20">$</tspan><tspan x="620" dy="20">E</tspan><tspan x="620" dy="20">L</tspan><tspan x="620" dy="20">h</tspan><tspan x="620" dy="20">P</tspan><tspan x="620" dy="20">j</tspan><tspan x="620" dy="20">w</tspan><tspan x="620" dy="20">2</tspan><tspan x="620" dy="20">^</tspan><tspan x="620" dy="20">h</tspan><tspan x="620" dy="20">v</tspan><tspan x="620" dy="20">$</tspan><tspan x="620" dy="20">(</tspan><tspan x="620" dy="20">W</tspan></text>
  </g>
  <g style="animation: fall 3.2526254031771833s linear 3.122132912927778s infinite;">
    <text class="matrix-text glow" x="640" y="0"><tspan x="640" dy="20">l</tspan><tspan x="640" dy="20">e</tspan><tspan x="640" dy="20">d</tspan><tspan x="640" dy="20">s</tspan><tspan x="640" dy="20">+</tspan><tspan x="640" dy="20">S</tspan><tspan x="640" dy="20">Y</tspan><tspan x="640" dy="20">9</tspan><tspan x="640" dy="20">a</tspan><tspan x="640" dy="20">k</tspan><tspan x="640" dy="20">z</tspan><tspan x="640" dy="20">e</tspan><tspan x="640" dy="20">Z</tspan><tspan x="640" dy="20">l</tspan><tspan x="640" dy="20">w</tspan><tspan x="640" dy="20">3</tspan><tspan x="640" dy="20">d</tspan><tspan x="640" dy="20">a</tspan></text>
  </g>
  <g style="animation: fall 5.181480885865129s linear 4.856107396884989s infinite;">
    <text class="matrix-text glow" x="660" y="0"><tspan x="660" dy="20">g</tspan><tspan x="660" dy="20">_</tspan><tspan x="660" dy="20">F</tspan><tspan x="660" dy="20">w</tspan><tspan x="660" dy="20">C</tspan><tspan x="660" dy="20">H</tspan><tspan x="660" dy="20">H</tspan><tspan x="660" dy="20">W</tspan><tspan x="660" dy="20">8</tspan><tspan x="660" dy="20">7</tspan><tspan x="660" dy="20">)</tspan><tspan x="660" dy="20">8</tspan></text>
  </g>
  <g style="animation: fall 7.613806889279741s linear 1.426725733908207s infinite;">
    <text class="matrix-text glow" x="680" y="0"><tspan x="680" dy="20">L</tspan><tspan x="680" dy="20">H</tspan><tspan x="680" dy="20">W</tspan><tspan x="680" dy="20">S</tspan><tspan x="680" dy="20">Z</tspan><tspan x="680" dy="20">x</tspan><tspan x="680" dy="20">#</tspan><tspan x="680" dy="20">6</tspan><tspan x="680" dy="20">p</tspan><tspan x="680" dy="20">+</tspan><tspan x="680" dy="20">P</tspan><tspan x="680" dy="20">V</tspan><tspan x="680" dy="20">j</tspan><tspan x="680" dy="20">R</tspan></text>
  </g>
  <g style="animation: fall 6.156284680612627s linear 2.9999353840862057s infinite;">
    <text class="matrix-text glow" x="700" y="0"><tspan x="700" dy="20">x</tspan><tspan x="700" dy="20">$</tspan><tspan x="700" dy="20">Y</tspan><tspan x="700" dy="20">b</tspan><tspan x="700" dy="20">)</tspan><tspan x="700" dy="20">V</tspan><tspan x="700" dy="20">I</tspan><tspan x="700" dy="20">A</tspan><tspan x="700" dy="20">G</tspan><tspan x="700" dy="20">K</tspan></text>
  </g>
  <g style="animation: fall 7.88268500009797s linear 1.5150811973824418s infinite;">
    <text class="matrix-text glow" x="720" y="0"><tspan x="720" dy="20">S</tspan><tspan x="720" dy="20">%</tspan><tspan x="720" dy="20">O</tspan><tspan x="720" dy="20">!</tspan><tspan x="720" dy="20">c</tspan><tspan x="720" dy="20">w</tspan><tspan x="720" dy="20">^</tspan><tspan x="720" dy="20">l</tspan><tspan x="720" dy="20">q</tspan><tspan x="720" dy="20">A</tspan><tspan x="720" dy="20">%</tspan><tspan x="720" dy="20">V</tspan><tspan x="720" dy="20">&</tspan><tspan x="720" dy="20">1</tspan><tspan x="720" dy="20">d</tspan><tspan x="720" dy="20">Q</tspan><tspan x="720" dy="20">X</tspan><tspan x="720" dy="20">s</tspan><tspan x="720" dy="20">p</tspan><tspan x="720" dy="20">)</tspan></text>
  </g>
  <g style="animation: fall 4.1097819759274135s linear 4.120631827235863s infinite;">
    <text class="matrix-text glow" x="740" y="0"><tspan x="740" dy="20">q</tspan><tspan x="740" dy="20">D</tspan><tspan x="740" dy="20">T</tspan><tspan x="740" dy="20">y</tspan><tspan x="740" dy="20">X</tspan><tspan x="740" dy="20">&</tspan><tspan x="740" dy="20">N</tspan><tspan x="740" dy="20">)</tspan><tspan x="740" dy="20">J</tspan><tspan x="740" dy="20">J</tspan><tspan x="740" dy="20">H</tspan></text>
  </g>
  <g style="animation: fall 3.760017298973215s linear 0.5131515219384919s infinite;">
    <text class="matrix-text glow" x="760" y="0"><tspan x="760" dy="20">+</tspan><tspan x="760" dy="20">A</tspan><tspan x="760" dy="20">L</tspan><tspan x="760" dy="20">N</tspan><tspan x="760" dy="20">E</tspan><tspan x="760" dy="20">E</tspan><tspan x="760" dy="20">0</tspan><tspan x="760" dy="20">g</tspan><tspan x="760" dy="20">I</tspan><tspan x="760" dy="20">I</tspan><tspan x="760" dy="20">p</tspan><tspan x="760" dy="20">$</tspan><tspan x="760" dy="20">s</tspan><tspan x="760" dy="20">z</tspan><tspan x="760" dy="20">v</tspan><tspan x="760" dy="20">h</tspan><tspan x="760" dy="20">%</tspan><tspan x="760" dy="20">z</tspan></text>
  </g>
  <g style="animation: fall 6.5825145586209795s linear 3.3834906047272666s infinite;">
    <text class="matrix-text glow" x="780" y="0"><tspan x="780" dy="20">V</tspan><tspan x="780" dy="20">z</tspan><tspan x="780" dy="20">8</tspan><tspan x="780" dy="20">n</tspan><tspan x="780" dy="20">x</tspan><tspan x="780" dy="20">T</tspan><tspan x="780" dy="20">r</tspan><tspan x="780" dy="20">p</tspan><tspan x="780" dy="20">t</tspan><tspan x="780" dy="20">H</tspan><tspan x="780" dy="20">8</tspan><tspan x="780" dy="20">u</tspan><tspan x="780" dy="20">U</tspan><tspan x="780" dy="20">p</tspan><tspan x="780" dy="20">B</tspan><tspan x="780" dy="20">+</tspan><tspan x="780" dy="20">q</tspan><tspan x="780" dy="20">F</tspan><tspan x="780" dy="20">e</tspan><tspan x="780" dy="20">!</tspan><tspan x="780" dy="20">z</tspan><tspan x="780" dy="20">V</tspan></text>
  </g></svg>